<svg version="1.1" id="Layer_1" xmlns="http://www.w3.org/2000/svg" xmlns:xlink="http://www.w3.org/1999/xlink" x="0px" y="0px"
	 width="100%" viewBox="0 0 768 768" enable-background="new 0 0 768 768" xml:space="preserve">
<path fill="#FFFFFF" opacity="1.000000" stroke="none" 
	d="
M413.000000,769.000000 
	C275.333344,769.000000 138.166672,769.000000 1.000000,769.000000 
	C1.000000,513.000000 1.000000,257.000000 1.000000,1.000000 
	C257.000000,1.000000 513.000000,1.000000 769.000000,1.000000 
	C769.000000,257.000000 769.000000,513.000000 769.000000,769.000000 
	C650.500000,769.000000 532.000000,769.000000 413.000000,769.000000 
M70.913094,542.842651 
	C71.298668,543.755371 71.625290,544.698425 72.078262,545.576416 
	C95.478485,590.929810 127.181755,629.488831 167.135040,661.206665 
	C206.673782,692.595276 251.039627,714.414978 299.980804,726.635376 
	C343.733246,737.560242 388.080750,739.528076 432.841064,734.197632 
	C475.735535,729.089539 516.526611,717.248047 554.663269,696.806885 
	C577.491638,684.570984 598.748413,670.056396 617.974976,651.714844 
	C620.420410,649.452759 622.942444,647.267517 625.299866,644.917175 
	C664.584778,605.750061 691.437927,559.231995 707.095825,506.150421 
	C721.006409,458.992004 725.378113,410.811035 721.739136,361.889587 
	C720.731750,348.345917 718.609985,334.885132 716.983276,321.250092 
	C605.976318,321.250092 495.752441,321.250092 385.281616,321.250092 
	C385.281616,366.561249 385.281616,411.615906 385.281616,457.269928 
	C448.273132,457.269928 510.981110,457.269928 573.917480,457.269928 
	C573.839661,458.853729 573.928345,459.857880 573.724060,460.798401 
	C567.322327,490.272797 554.281067,516.408325 533.212463,538.054565 
	C524.436890,547.070679 514.263184,554.726013 504.076141,563.159241 
	C457.951263,592.924377 407.262848,602.932678 353.637177,594.439819 
	C289.534393,584.287537 241.098862,549.359558 207.506866,494.220215 
	C199.438904,480.977112 194.078110,466.084686 187.315002,451.132172 
	C184.991013,441.625244 182.332321,432.185516 180.408081,422.598358 
	C175.376984,397.531860 175.414276,372.375244 180.404373,347.307861 
	C182.345688,337.555756 185.008881,327.947327 187.866043,317.797089 
	C188.243393,316.874573 188.663254,315.966980 188.992035,315.027466 
	C219.370956,228.216476 304.720367,166.021301 401.292969,173.824371 
	C441.455109,177.069458 477.403748,190.663422 508.730652,216.149857 
	C512.425659,219.155960 516.035400,222.266724 519.176880,224.902847 
	C552.897644,191.234467 586.229187,157.954681 619.688049,124.547821 
	C619.712341,124.616531 619.690979,124.225639 619.484558,124.025543 
	C617.810852,122.402557 616.145935,120.765984 614.398254,119.224396 
	C558.966858,70.329857 494.616730,41.945602 420.933441,34.768524 
	C379.402863,30.723265 338.339111,33.278057 298.038757,43.968170 
	C204.205963,68.858345 132.496460,123.482330 82.231796,206.374481 
	C78.034698,213.295975 74.729202,220.758102 70.401917,228.311050 
	C69.644318,229.781540 68.861443,231.239624 68.132797,232.724319 
	C47.248253,275.278870 35.792435,320.327698 33.351372,367.578369 
	C31.192883,409.359253 36.122749,450.439789 49.443260,490.135895 
	C55.392174,507.864044 63.660332,524.813904 70.913094,542.842651 
z"/>
<path fill="#E94336" opacity="1.000000" stroke="none" 
	d="
M71.009468,227.969055 
	C74.729202,220.758102 78.034698,213.295975 82.231796,206.374481 
	C132.496460,123.482330 204.205963,68.858345 298.038757,43.968170 
	C338.339111,33.278057 379.402863,30.723265 420.933441,34.768524 
	C494.616730,41.945602 558.966858,70.329857 614.398254,119.224396 
	C616.145935,120.765984 617.810852,122.402557 619.484558,124.025543 
	C619.690979,124.225639 619.712341,124.616531 619.688049,124.547821 
	C586.229187,157.954681 552.897644,191.234467 519.176880,224.902847 
	C516.035400,222.266724 512.425659,219.155960 508.730652,216.149857 
	C477.403748,190.663422 441.455109,177.069458 401.292969,173.824371 
	C304.720367,166.021301 219.370956,228.216476 188.992035,315.027466 
	C188.663254,315.966980 188.243393,316.874573 187.407776,317.722778 
	C179.942261,312.096527 172.972626,306.496307 165.920700,301.001740 
	C144.225754,284.097809 122.536110,267.186676 100.768509,250.376587 
	C90.941376,242.787567 80.934692,235.431061 71.009468,227.969055 
z"/>
<path fill="#35A854" opacity="1.000000" stroke="none" 
	d="
M617.427917,651.973694 
	C598.748413,670.056396 577.491638,684.570984 554.663269,696.806885 
	C516.526611,717.248047 475.735535,729.089539 432.841064,734.197632 
	C388.080750,739.528076 343.733246,737.560242 299.980804,726.635376 
	C251.039627,714.414978 206.673782,692.595276 167.135040,661.206665 
	C127.181755,629.488831 95.478485,590.929810 72.078262,545.576416 
	C71.625290,544.698425 71.298668,543.755371 71.217514,542.337341 
	C72.499458,541.202209 73.532043,540.643250 74.446465,539.932251 
	C98.089188,521.550049 121.720741,503.153503 145.351730,484.756256 
	C159.394104,473.823883 173.432236,462.886108 187.472290,451.950806 
	C194.078110,466.084686 199.438904,480.977112 207.506866,494.220215 
	C241.098862,549.359558 289.534393,584.287537 353.637177,594.439819 
	C407.262848,602.932678 457.951263,592.924377 504.518433,563.407959 
	C510.484009,568.117004 515.939758,572.664246 521.542419,577.022522 
	C542.977661,593.696716 564.491577,610.269897 585.911682,626.963440 
	C596.489563,635.207214 606.926941,643.631226 617.427917,651.973694 
z"/>
<path fill="#4286F4" opacity="1.000000" stroke="none" 
	d="
M617.701416,651.844238 
	C606.926941,643.631226 596.489563,635.207214 585.911682,626.963440 
	C564.491577,610.269897 542.977661,593.696716 521.542419,577.022522 
	C515.939758,572.664246 510.484009,568.117004 504.842987,563.328369 
	C514.263184,554.726013 524.436890,547.070679 533.212463,538.054565 
	C554.281067,516.408325 567.322327,490.272797 573.724060,460.798401 
	C573.928345,459.857880 573.839661,458.853729 573.917480,457.269928 
	C510.981110,457.269928 448.273132,457.269928 385.281616,457.269928 
	C385.281616,411.615906 385.281616,366.561249 385.281616,321.250092 
	C495.752441,321.250092 605.976318,321.250092 716.983276,321.250092 
	C718.609985,334.885132 720.731750,348.345917 721.739136,361.889587 
	C725.378113,410.811035 721.006409,458.992004 707.095825,506.150421 
	C691.437927,559.231995 664.584778,605.750061 625.299866,644.917175 
	C622.942444,647.267517 620.420410,649.452759 617.701416,651.844238 
z"/>
<path fill="#FABC07" opacity="1.000000" stroke="none" 
	d="
M187.393646,451.541504 
	C173.432236,462.886108 159.394104,473.823883 145.351730,484.756256 
	C121.720741,503.153503 98.089188,521.550049 74.446465,539.932251 
	C73.532043,540.643250 72.499458,541.202209 71.198929,541.974487 
	C63.660332,524.813904 55.392174,507.864044 49.443260,490.135895 
	C36.122749,450.439789 31.192883,409.359253 33.351372,367.578369 
	C35.792435,320.327698 47.248253,275.278870 68.132797,232.724319 
	C68.861443,231.239624 69.644318,229.781540 70.705688,228.140045 
	C80.934692,235.431061 90.941376,242.787567 100.768509,250.376587 
	C122.536110,267.186676 144.225754,284.097809 165.920700,301.001740 
	C172.972626,306.496307 179.942261,312.096527 187.146393,317.960968 
	C185.008881,327.947327 182.345688,337.555756 180.404373,347.307861 
	C175.414276,372.375244 175.376984,397.531860 180.408081,422.598358 
	C182.332321,432.185516 184.991013,441.625244 187.393646,451.541504 
z"/>
</svg>