<svg version="1.1" id="Layer_1" xmlns="http://www.w3.org/2000/svg" xmlns:xlink="http://www.w3.org/1999/xlink" x="0px" y="0px"
	 width="100%" viewBox="0 0 992 992" enable-background="new 0 0 992 992" xml:space="preserve">
<path fill="#000000" opacity="1.000000" stroke="none" 
	d="
M310.342041,627.593750 
	C300.811279,614.779114 292.361420,601.698547 284.961670,587.949585 
	C272.245300,564.321838 262.096466,539.696472 256.295929,513.414917 
	C253.579605,501.107483 251.544250,488.762329 251.569641,476.031219 
	C251.731827,394.712952 251.649490,313.394257 251.651627,232.075684 
	C251.651810,224.677597 251.664902,224.664764 258.926758,224.664612 
	C421.063995,224.661209 583.201233,224.660187 745.338440,224.662140 
	C752.325500,224.662231 752.342529,224.677460 752.342529,231.868240 
	C752.342285,315.353058 752.429016,398.838104 752.245239,482.322540 
	C752.212952,496.977844 748.630127,511.225372 744.784607,525.300842 
	C739.475708,544.732422 732.054688,563.424133 722.764587,581.243164 
	C711.007446,603.794189 697.203918,625.069214 680.646973,644.507446 
	C671.271606,655.514343 661.889954,666.495422 651.495667,676.554565 
	C634.905701,692.609680 617.322876,707.523315 598.613159,721.038635 
	C569.745178,741.891846 539.173462,759.918640 507.122650,775.463501 
	C503.447266,777.246094 500.540924,777.275085 496.869720,775.472839 
	C462.050079,758.379944 428.747223,738.783020 397.813904,715.338928 
	C384.728729,705.421814 372.321564,694.673584 360.222931,683.517273 
	C341.829285,666.556274 325.405670,647.950623 310.342041,627.593750 
M265.348755,294.499908 
	C265.348022,353.663544 265.400085,412.827240 265.303131,471.990723 
	C265.283112,484.196503 267.294922,496.078430 269.954956,507.893097 
	C276.462036,536.794556 287.687317,563.766663 302.623718,589.343506 
	C315.911194,612.096741 331.863464,632.820740 349.547455,652.188538 
	C357.822174,661.251160 366.809998,669.709229 375.964172,677.985962 
	C388.807465,689.598389 402.234070,700.434143 416.255157,710.499084 
	C442.099762,729.051575 469.380951,745.274719 497.872986,759.466003 
	C500.863708,760.955688 503.170624,761.036682 506.157990,759.546509 
	C528.051331,748.625244 549.397583,736.724609 569.742371,723.150879 
	C589.760010,709.795410 609.056824,695.494202 626.804382,679.096619 
	C644.414978,662.825623 661.199341,645.906738 675.926147,626.920410 
	C696.117432,600.889099 712.570984,572.829651 723.976624,541.869751 
	C731.816345,520.589294 738.272949,498.753693 738.438477,476.067230 
	C739.001709,398.907776 738.615967,321.741669 738.747375,244.578339 
	C738.755615,239.774734 737.337585,238.210907 732.517822,238.283279 
	C716.188843,238.528412 699.853882,238.389053 683.521240,238.388550 
	C546.526794,238.384369 409.532379,238.378143 272.537933,238.373459 
	C265.351898,238.373215 265.345306,238.376984 265.344299,245.501831 
	C265.342072,261.501190 265.347076,277.500519 265.348755,294.499908 
z"/>
<path fill="#000000" opacity="1.000000" stroke="none" 
	d="
M475.934052,305.868164 
	C469.134521,314.747955 466.469635,324.740723 465.353058,335.277710 
	C465.120880,337.468719 465.994598,340.128906 462.309692,340.394196 
	C457.952301,340.707825 459.582703,344.194366 459.423096,346.550507 
	C459.200684,349.833832 461.683777,349.644257 463.897797,349.644409 
	C485.063080,349.645996 506.228394,349.647827 527.393677,349.649109 
	C531.226746,349.649353 535.059998,349.666290 538.892883,349.638550 
	C540.882812,349.624176 543.324585,349.892090 543.455322,347.070648 
	C543.566833,344.663269 545.027832,341.337585 541.160767,340.405121 
	C538.285278,339.711761 538.859924,337.654755 538.649475,335.748657 
	C537.216553,322.766968 533.746094,310.740936 523.606445,301.501678 
	C519.709961,297.951111 515.209839,295.613068 510.635834,293.244324 
	C505.616119,290.644684 504.794189,284.415100 509.239655,280.765442 
	C515.656921,275.496948 517.111816,267.441803 508.592529,261.198822 
	C506.023804,259.316437 506.435638,256.777893 506.956970,254.420013 
	C507.501160,251.959015 509.912476,252.708496 511.592712,252.707397 
	C580.254883,252.663025 648.917114,252.689255 717.579224,252.601501 
	C721.358765,252.596680 722.391785,253.969223 722.387939,257.577362 
	C722.312988,328.739288 722.535034,399.902405 722.160706,471.062439 
	C722.090515,484.399048 719.517639,497.689880 715.723450,510.940613 
	C712.489502,510.748199 709.406311,510.560089 706.322571,510.382050 
	C693.831787,509.660858 681.364502,510.846222 668.944519,511.570435 
	C653.456238,512.473572 640.300720,506.996887 627.553223,499.477905 
	C614.121948,491.555664 599.441223,488.029449 584.115906,486.293640 
	C573.821838,485.127655 563.527771,485.356506 553.227356,485.393219 
	C549.741211,485.405670 548.585876,484.102936 548.617554,480.684662 
	C548.742432,467.186737 548.526428,453.684814 548.739136,440.189117 
	C548.805725,435.964294 547.687744,434.260315 543.166504,434.286591 
	C515.669312,434.446655 488.170227,434.436676 460.672791,434.291809 
	C456.410400,434.269348 455.226013,435.881042 455.286346,439.892517 
	C455.466736,451.889008 455.353668,463.889984 455.346954,475.889191 
	C455.342773,483.349457 455.315186,483.001465 448.143768,483.431732 
	C432.849731,484.349274 418.105225,480.875916 403.291077,478.168182 
	C385.833130,474.977203 368.648041,476.326874 351.427338,479.720581 
	C330.885925,483.768768 311.048492,490.230469 291.229919,496.797455 
	C289.402405,497.403015 287.610168,498.618988 285.247528,497.718445 
	C283.292511,488.943298 281.751984,479.936401 281.733551,470.861572 
	C281.590454,400.366425 281.650146,329.870880 281.654083,259.375458 
	C281.654449,252.705154 281.676605,252.674011 288.147003,252.673172 
	C355.809265,252.664459 423.471558,252.654587 491.133759,252.721817 
	C493.215790,252.723877 496.232330,251.482422 497.083282,254.670517 
	C497.830170,257.468994 497.274536,259.843903 494.448364,261.983704 
	C487.452484,267.280518 487.643341,274.909241 494.424347,280.482300 
	C499.550507,284.695251 498.388947,290.590851 492.330963,293.512878 
	C486.219879,296.460449 480.420837,300.061676 475.934052,305.868164 
M399.342499,406.826447 
	C419.957520,393.996063 431.363861,375.424805 431.436005,351.183960 
	C431.496338,330.913788 422.236359,314.294739 406.377411,301.814178 
	C395.252472,293.059143 382.094360,288.501160 367.994415,288.556244 
	C356.115753,288.602631 344.889862,292.136688 334.587708,298.560455 
	C312.671722,312.225891 301.464905,338.252686 305.730560,362.198669 
	C309.316650,382.330078 320.517639,397.452606 338.252014,407.577759 
	C347.966522,413.124084 358.710785,415.735504 369.755554,415.412964 
	C379.912506,415.116394 389.679474,412.143280 399.342499,406.826447 
M448.347626,420.190277 
	C448.325836,424.077148 451.166138,423.629913 453.636871,423.631012 
	C485.925507,423.645264 518.214172,423.613251 550.502625,423.687775 
	C553.895508,423.695618 555.731445,423.003204 555.734192,419.028748 
	C555.736877,415.090057 553.988892,414.103424 550.547241,414.346252 
	C548.394287,414.498199 546.204712,414.199524 544.061951,414.411102 
	C539.998962,414.812286 538.518616,413.279144 538.580322,409.078796 
	C538.788147,394.934814 538.519592,380.783783 538.733582,366.639984 
	C538.797302,362.433868 537.348145,361.243866 533.268921,361.275940 
	C512.465698,361.439667 491.659424,361.461182 470.856812,361.262085 
	C466.332367,361.218781 465.190765,362.888123 465.273041,367.116364 
	C465.499634,378.762482 465.349457,390.415894 465.348907,402.066437 
	C465.348328,414.169586 465.348358,414.309662 453.476501,414.289917 
	C449.644012,414.283539 447.738922,415.314941 448.347626,420.190277 
M659.021484,311.500366 
	C656.929199,312.516602 654.754028,313.392670 652.758972,314.573181 
	C643.939087,319.791992 637.473755,326.045654 638.149536,337.795044 
	C638.941345,351.561157 638.305786,365.407745 638.379028,379.218964 
	C638.387817,380.880219 637.529480,382.892181 639.549561,384.221497 
	C640.039612,384.034760 640.621887,383.986542 640.928467,383.670685 
	C648.840942,375.517578 658.254456,370.480774 669.699585,369.370697 
	C672.570862,369.092224 673.726990,367.192566 673.705139,364.127075 
	C673.583008,346.988251 673.595337,329.847839 673.679932,312.708588 
	C673.697815,309.084045 672.209473,307.782837 668.793640,308.658356 
	C665.755920,309.436951 662.750488,310.341125 659.021484,311.500366 
M599.095398,308.436310 
	C596.278503,308.349609 593.288757,307.628723 593.317749,312.255737 
	C593.427490,329.751465 593.363281,347.248291 593.359009,364.744720 
	C593.358521,366.742401 593.753906,368.242584 596.195435,368.649475 
	C607.744934,370.574219 618.026917,375.146332 626.196533,383.811035 
	C628.116272,381.960297 627.618958,379.859558 627.624451,377.939789 
	C627.666931,363.109589 627.553833,348.278229 627.704956,333.449432 
	C627.750732,328.953064 626.052246,325.497559 623.196228,322.236359 
	C616.926758,315.077484 608.839783,311.136414 599.095398,308.436310 
M581.665833,348.500061 
	C581.663696,338.504639 581.674438,328.509186 581.650208,318.513824 
	C581.644165,316.026031 582.051392,313.350494 578.069214,313.400146 
	C574.373596,313.446228 574.294678,315.677521 574.301453,318.401428 
	C574.348633,337.392609 574.430847,356.384888 574.246948,375.374359 
	C574.213745,378.804382 575.752625,380.548431 578.336792,382.049133 
	C595.263306,391.878754 612.248779,401.610443 629.042114,411.662872 
	C632.487549,413.725342 635.068726,413.242432 638.121399,411.432251 
	C654.970764,401.440552 671.818970,391.445465 688.768372,381.625397 
	C691.594360,379.988098 692.723694,378.113708 692.704651,374.882782 
	C692.594482,356.225311 692.635620,337.566833 692.670044,318.908783 
	C692.675598,315.888916 692.755798,313.318665 688.419922,313.289337 
	C683.913513,313.258881 684.327393,316.058044 684.329895,318.951080 
	C684.344971,336.443054 684.280396,353.935425 684.391907,371.426697 
	C684.412048,374.587189 683.539612,376.587402 680.638245,378.243591 
	C666.377075,386.384338 652.154114,394.602997 638.143799,403.164246 
	C634.800049,405.207520 632.317688,405.428558 629.067322,403.488586 
	C614.534363,394.814636 599.983093,386.166626 585.285522,377.777100 
	C582.307922,376.077423 581.546204,374.098785 581.614258,370.989166 
	C581.771118,363.829224 581.664856,356.663483 581.665833,348.500061 
z"/>
<path fill="#000000" opacity="1.000000" stroke="none" 
	d="
M498.285950,739.102966 
	C473.244537,726.940247 449.552185,713.236267 427.044952,697.507751 
	C411.121948,686.380432 396.159363,674.113586 381.735199,661.067383 
	C370.592010,650.988708 360.828308,639.731201 350.752319,628.709229 
	C349.313995,627.135925 348.137360,625.323364 346.506470,623.184570 
	C353.578705,618.636414 360.323029,614.200256 367.164612,609.919617 
	C381.926636,600.683533 396.741272,591.531494 411.529144,582.336609 
	C419.698242,577.257202 427.857635,572.162109 436.019440,567.070984 
	C437.929810,565.879395 440.017395,565.639893 442.234283,565.641541 
	C482.381287,565.671509 522.528503,565.714844 562.675049,565.576660 
	C566.363770,565.563965 569.064514,567.307983 571.799500,569.012085 
	C599.377502,586.196045 626.883545,603.495361 654.410400,620.761414 
	C655.410767,621.388794 656.325500,622.090942 656.783691,623.443176 
	C654.964172,628.335632 650.752747,631.613892 647.402771,635.374207 
	C618.123962,668.239990 583.797668,694.932495 546.043091,717.354065 
	C533.043884,725.073975 519.729370,732.206726 506.172577,738.899048 
	C503.626038,740.156189 501.235565,740.822693 498.285950,739.102966 
M479.464508,657.673157 
	C483.820496,658.954956 487.650421,657.432800 491.165039,655.149841 
	C498.522247,650.371033 498.383423,643.752747 490.980591,639.017151 
	C489.522430,638.084351 487.454590,637.624390 487.732330,635.237671 
	C488.496002,633.871216 489.983704,633.822083 491.111694,633.197815 
	C493.850586,631.681946 495.444031,629.178406 495.191284,626.314026 
	C494.931946,623.374878 493.428894,620.681458 490.419098,619.201111 
	C485.623901,616.842712 480.838440,616.861694 476.050995,619.050964 
	C469.452942,622.068176 468.386047,629.695007 473.901550,634.390686 
	C474.908386,635.247803 476.209015,635.792725 475.880646,637.763306 
	C471.724091,640.143433 468.302460,643.307617 469.096466,648.949524 
	C469.878235,654.504456 474.131866,656.247131 479.464508,657.673157 
M564.134155,645.581299 
	C566.379150,638.080505 565.541809,630.830139 561.873596,624.021973 
	C557.306213,615.545105 547.458374,615.303406 542.296082,623.442871 
	C537.195618,631.484985 536.891663,640.024048 540.485718,648.625366 
	C543.280640,655.314270 547.779541,658.309448 553.299011,657.555908 
	C559.747742,656.675415 562.069702,651.707642 564.134155,645.581299 
M521.832825,656.540527 
	C532.341675,650.935974 532.957825,630.920837 526.793823,622.914856 
	C521.339783,615.830750 513.952942,615.737976 508.454834,622.665100 
	C502.334412,630.376282 502.355347,645.196289 508.395386,653.013794 
	C511.770996,657.382812 515.906311,658.817566 521.832825,656.540527 
M448.709595,653.156982 
	C447.065186,653.838379 444.499298,652.452759 443.761932,655.292358 
	C448.040710,657.557251 457.584167,657.194153 460.418243,654.355957 
	C454.839783,653.858337 455.661011,649.850647 455.654358,646.271423 
	C455.639771,638.443604 455.632843,630.615723 455.597992,622.788025 
	C455.587494,620.431641 455.108948,617.873596 452.047241,618.951111 
	C447.990875,620.378601 444.404846,622.799133 441.740143,626.682129 
	C444.971619,627.467468 446.946686,624.047852 450.293671,625.740051 
	C449.887299,634.643982 451.293274,643.729858 448.709595,653.156982 
z"/>
<path fill="#000000" opacity="1.000000" stroke="none" 
	d="
M502.999878,554.372803 
	C487.667358,554.370361 472.833374,554.252625 458.003265,554.439819 
	C453.869202,554.492004 452.473267,553.112732 452.578339,548.986206 
	C452.820068,539.492737 452.784119,529.986877 452.607727,520.490845 
	C452.539307,516.810242 453.838470,515.575500 457.517273,515.588806 
	C487.181915,515.695923 516.847290,515.695740 546.511963,515.592163 
	C550.198059,515.579285 551.472717,516.838867 551.402893,520.512878 
	C551.219421,530.175537 551.217590,539.846313 551.402100,549.508972 
	C551.472595,553.197205 550.172668,554.460205 546.496948,554.423401 
	C532.165833,554.279846 517.832458,554.369690 502.999878,554.372803 
M490.500092,526.374634 
	C485.342896,526.375610 480.185089,526.323853 475.028656,526.387817 
	C461.482788,526.555725 463.685120,524.394653 463.270752,538.445923 
	C463.143829,542.750366 464.791412,543.754639 468.782227,543.723389 
	C489.076996,543.564270 509.373901,543.709351 529.669617,543.625793 
	C542.271362,543.573914 540.287903,545.352417 540.761658,532.389465 
	C540.944336,527.389404 539.054077,526.202148 534.419739,526.280273 
	C520.116760,526.521301 505.807159,526.372375 490.500092,526.374634 
z"/>
<path fill="#000000" opacity="1.000000" stroke="none" 
	d="
M658.253357,590.660889 
	C662.509399,593.295166 666.420593,595.798035 670.351807,598.269226 
	C673.005432,599.937378 674.344666,601.835693 671.651184,604.588318 
	C671.538879,604.703064 671.487488,604.875610 671.399048,605.015808 
	C666.167053,613.313721 666.269592,613.151855 658.016479,607.915955 
	C629.291931,589.692505 600.501099,571.573242 571.710022,553.454651 
	C563.230469,548.118408 561.477661,543.328064 565.000793,531.804993 
	C596.182922,551.508057 627.049988,571.012024 658.253357,590.660889 
z"/>
<path fill="#000000" opacity="1.000000" stroke="none" 
	d="
M416.585419,545.495972 
	C423.936646,540.778503 430.812988,535.958313 438.744904,531.984009 
	C439.815704,537.278564 439.529114,542.069519 439.108246,546.779175 
	C438.843170,549.746155 435.722839,550.745239 433.555847,552.113831 
	C414.222534,564.323792 394.803711,576.398132 375.440979,588.561707 
	C364.493896,595.438599 353.556396,602.333435 342.717896,609.379089 
	C339.317841,611.589355 336.695404,611.992310 334.684448,607.859192 
	C334.473175,607.424988 333.997559,607.127197 333.731232,606.710754 
	C328.967224,599.260437 328.639893,600.652954 335.387177,596.443970 
	C362.395935,579.596130 389.339752,562.644165 416.585419,545.495972 
z"/>
<path fill="#000000" opacity="1.000000" stroke="none" 
	d="
M474.999939,504.365356 
	C463.170197,504.356750 451.836578,504.172424 440.512604,504.422699 
	C435.775269,504.527405 435.601959,501.998474 435.584625,498.460419 
	C435.567017,494.875366 435.854370,492.564941 440.547699,492.582245 
	C481.200897,492.732330 521.855164,492.730408 562.508362,492.585175 
	C567.258240,492.568207 567.397644,495.012970 567.411560,498.534119 
	C567.425659,502.097839 567.184509,504.468658 562.471863,504.441223 
	C533.482056,504.272308 504.490753,504.361694 474.999939,504.365356 
z"/>
<path fill="#000000" opacity="1.000000" stroke="none" 
	d="
M495.144165,442.666321 
	C500.122650,442.664215 504.618652,442.745819 509.110718,442.646851 
	C511.967377,442.583923 513.399597,443.545868 513.366272,446.650024 
	C513.262634,456.303436 513.299377,465.958649 513.336975,475.612976 
	C513.346252,478.008667 512.565857,479.372925 509.906799,479.330078 
	C504.748108,479.246918 499.586548,479.241272 494.427673,479.312958 
	C491.620453,479.351929 490.639557,478.024048 490.658539,475.344757 
	C490.726929,465.690765 490.736877,456.035675 490.662842,446.381805 
	C490.640778,443.503815 492.044281,442.525848 495.144165,442.666321 
z"/>
<path fill="#000000" opacity="1.000000" stroke="none" 
	d="
M495.688995,271.136383 
	C495.956573,267.525726 497.718689,265.500580 500.743164,264.818207 
	C503.408020,264.217010 505.652588,265.241852 507.091553,267.599854 
	C508.551208,269.991699 508.979950,272.668121 507.491302,275.093231 
	C505.571136,278.221375 502.240967,277.501007 499.389832,277.099579 
	C496.438507,276.683990 495.558258,274.327301 495.688995,271.136383 
z"/>
<path fill="#000000" opacity="1.000000" stroke="none" 
	d="
M371.956512,357.251526 
	C378.719482,354.443329 385.529480,355.976379 392.253296,355.896362 
	C394.238556,355.872742 394.154053,357.806030 394.313599,359.311554 
	C394.793610,363.841766 393.767517,368.242828 393.179718,372.673889 
	C392.853119,375.136017 391.372223,376.415192 388.722534,376.357880 
	C384.226410,376.260651 379.726196,376.271851 375.229034,376.334320 
	C372.674316,376.369781 371.619293,375.192535 371.665222,372.701263 
	C371.757233,367.706238 371.770172,362.709778 371.956512,357.251526 
z"/>
<path fill="#000000" opacity="1.000000" stroke="none" 
	d="
M386.798218,327.657043 
	C391.185516,327.227264 392.952728,328.905792 393.438263,332.900024 
	C393.919983,336.862579 394.442932,340.778748 394.350006,344.785187 
	C394.291046,347.327850 393.211304,348.383636 390.706818,348.349884 
	C385.543884,348.280396 380.379028,348.269043 375.215973,348.325806 
	C372.653137,348.354004 371.628967,347.159698 371.663422,344.679932 
	C371.725922,340.183228 371.752014,335.684204 371.675568,331.188141 
	C371.631348,328.586334 372.869141,327.642273 375.329071,327.680817 
	C378.992645,327.738312 382.658142,327.670868 386.798218,327.657043 
z"/>
<path fill="#000000" opacity="1.000000" stroke="none" 
	d="
M364.292114,331.176941 
	C364.313965,335.814301 364.238068,339.968781 364.345428,344.118500 
	C364.418793,346.954407 363.502899,348.461212 360.378967,348.374481 
	C355.399841,348.236267 350.413208,348.267822 345.431793,348.350311 
	C342.608490,348.397064 341.534668,347.032379 341.683990,344.385315 
	C341.702637,344.054474 341.657806,343.720093 341.675690,343.389160 
	C341.959167,338.140533 341.021545,331.142059 345.061371,328.555939 
	C349.551147,325.681793 356.346497,327.658447 362.138306,327.846954 
	C363.816620,327.901611 364.201233,329.259094 364.292114,331.176941 
z"/>
<path fill="#000000" opacity="1.000000" stroke="none" 
	d="
M341.692688,362.790955 
	C341.757568,355.703796 341.757507,355.691498 348.174774,355.658508 
	C352.163635,355.638031 356.154999,355.746277 360.140900,355.637085 
	C363.028198,355.558014 364.451141,356.590149 364.349548,359.665466 
	C364.212463,363.816132 364.192963,367.979065 364.348053,372.128326 
	C364.472046,375.444794 362.950226,376.629120 359.844513,376.368866 
	C358.854584,376.285889 357.851196,376.365784 356.853973,376.367279 
	C343.799408,376.386505 343.799408,376.386353 341.692688,362.790955 
z"/>
<path fill="#000000" opacity="1.000000" stroke="none" 
	d="
M316.909515,374.168213 
	C314.961151,369.319763 313.772827,364.692749 312.851929,359.998962 
	C312.303741,357.204742 313.172577,355.555359 316.421997,355.644196 
	C321.224304,355.775513 326.032532,355.706635 330.838135,355.690826 
	C333.006927,355.683685 334.431702,356.518860 334.262115,358.870697 
	C333.855530,364.508972 335.529541,369.960724 335.874786,376.125641 
	C329.435822,375.620331 323.083069,378.285278 316.909515,374.168213 
z"/>
<path fill="#000000" opacity="1.000000" stroke="none" 
	d="
M329.852356,327.651428 
	C332.122955,327.776123 334.005127,327.309235 335.849823,328.495148 
	C335.476257,334.012390 333.905396,339.504272 334.262695,345.170044 
	C334.413116,347.555420 332.944397,348.335510 330.775055,348.323029 
	C325.942657,348.295227 321.108948,348.256470 316.277771,348.339600 
	C312.923431,348.397247 312.390991,346.466095 312.827423,343.783752 
	C312.986328,342.807129 313.412598,341.876160 313.602142,340.902039 
	C316.181244,327.648865 316.176300,327.647888 329.852356,327.651428 
z"/>
<path fill="#000000" opacity="1.000000" stroke="none" 
	d="
M420.447571,332.766663 
	C425.865509,348.279877 425.757721,348.432495 409.831207,348.355347 
	C402.787231,348.321228 402.753906,348.325775 401.817017,341.478180 
	C401.592712,339.838806 401.754364,338.150024 401.596039,336.497620 
	C400.749298,327.660522 400.734833,327.575134 409.879120,327.692657 
	C413.947845,327.744965 418.969635,326.101868 420.447571,332.766663 
z"/>
<path fill="#000000" opacity="1.000000" stroke="none" 
	d="
M420.445923,371.243835 
	C419.527985,375.412170 417.135529,376.709839 413.408539,376.416779 
	C410.428955,376.182465 407.416656,376.278442 404.421753,376.348999 
	C401.633453,376.414734 400.374390,375.136566 400.730408,372.405884 
	C401.328644,367.817993 402.130493,363.253601 402.611298,358.654724 
	C402.867859,356.200684 404.206146,355.668610 406.284729,355.681793 
	C410.613495,355.709259 414.947174,355.798187 419.270172,355.634064 
	C422.756897,355.501709 423.603973,357.346313 423.299622,360.298920 
	C422.923096,363.951874 421.798798,367.416321 420.445923,371.243835 
z"/>
<path fill="#000000" opacity="1.000000" stroke="none" 
	d="
M388.028534,314.412506 
	C388.281586,316.248077 389.482391,317.523224 388.681793,319.742645 
	C383.855225,320.893677 378.654968,320.380310 373.480316,320.049133 
	C372.335876,319.975891 371.811157,318.956818 371.804840,317.907410 
	C371.765411,311.353119 371.784943,304.798462 371.784943,297.481750 
	C381.113495,300.149841 384.198456,307.382843 388.028534,314.412506 
z"/>
<path fill="#000000" opacity="1.000000" stroke="none" 
	d="
M383.994568,396.824219 
	C381.638000,400.296295 379.336121,403.253387 375.870056,405.203430 
	C373.186798,406.713043 371.737000,406.342224 371.695038,403.143982 
	C371.623108,397.663971 371.695831,392.181976 371.716125,386.700836 
	C371.722504,384.978821 372.381927,383.783661 374.305023,383.777069 
	C379.081482,383.760651 383.858032,383.771667 388.832458,383.771667 
	C389.300659,389.212341 386.338440,392.714905 383.994568,396.824219 
z"/>
<path fill="#000000" opacity="1.000000" stroke="none" 
	d="
M354.090942,320.365051 
	C351.499756,320.217010 349.301483,320.741180 347.315277,319.619019 
	C347.241028,311.876648 356.484528,299.722748 364.189819,298.213257 
	C364.189819,304.870331 364.231506,311.409424 364.164276,317.947418 
	C364.144226,319.897522 362.642059,320.289429 361.028473,320.313110 
	C358.875214,320.344727 356.721558,320.349030 354.090942,320.365051 
z"/>
<path fill="#000000" opacity="1.000000" stroke="none" 
	d="
M357.939423,383.663391 
	C362.903717,383.035675 364.712494,384.795685 364.409119,389.466278 
	C364.059326,394.850708 364.327820,400.275330 364.327820,405.811310 
	C356.675476,404.347168 348.731445,394.027466 347.244049,384.225891 
	C350.582581,383.156219 354.062286,383.875336 357.939423,383.663391 
z"/>
<path fill="#000000" opacity="1.000000" stroke="none" 
	d="
M404.065735,383.664246 
	C407.102448,383.889648 409.775360,383.137054 412.284821,384.283081 
	C410.768372,390.594849 397.883423,401.073547 389.542511,402.299255 
	C392.485382,396.170135 395.062439,390.366577 398.061646,384.790161 
	C399.130096,382.803589 401.710297,383.919678 404.065735,383.664246 
z"/>
<path fill="#000000" opacity="1.000000" stroke="none" 
	d="
M342.649475,309.589539 
	C342.258270,310.368988 342.023407,310.810730 341.845001,311.274139 
	C338.091675,321.023102 334.792755,322.568787 323.508087,319.209961 
	C328.733154,310.273987 336.566467,305.250793 345.823792,300.758850 
	C346.330566,304.879120 343.539459,306.673767 342.649475,309.589539 
z"/>
<path fill="#000000" opacity="1.000000" stroke="none" 
	d="
M327.406067,390.467834 
	C325.891144,388.511780 324.416687,386.931610 324.045807,384.312561 
	C328.358002,383.140167 332.622375,383.714722 336.849915,383.837769 
	C337.301636,383.850891 337.988403,384.109131 338.152405,384.451691 
	C340.943146,390.282501 343.668518,396.144562 345.940735,402.342102 
	C338.541473,400.203308 332.946442,395.712219 327.406067,390.467834 
z"/>
<path fill="#000000" opacity="1.000000" stroke="none" 
	d="
M411.758301,319.980133 
	C399.127686,320.948517 399.085236,320.969299 393.787567,310.144867 
	C392.504974,307.524170 390.590088,305.131653 390.100891,301.328430 
	C396.955688,303.302795 402.161774,306.945923 406.556183,311.638519 
	C408.772186,314.004852 412.742767,315.415680 411.758301,319.980133 
z"/>
<path fill="#000000" opacity="1.000000" stroke="none" 
	d="
M513.348999,386.000183 
	C513.337219,390.492889 513.247498,394.488892 513.339905,398.480682 
	C513.403015,401.208313 512.297546,402.423859 509.525757,402.373901 
	C504.534668,402.283936 499.540436,402.300323 494.548431,402.355713 
	C491.842957,402.385681 490.642365,401.221771 490.664642,398.469269 
	C490.731995,390.148590 490.738770,381.826477 490.656891,373.506012 
	C490.629883,370.759827 491.720612,369.594635 494.486725,369.651550 
	C499.477386,369.754242 504.472260,369.742401 509.463928,369.674194 
	C512.168579,369.637238 513.412903,370.738251 513.346191,373.519745 
	C513.250488,377.511414 513.338867,381.507507 513.348999,386.000183 
z"/>
<path fill="#000000" opacity="1.000000" stroke="none" 
	d="
M523.193359,402.024231 
	C521.197021,400.398010 521.692322,398.467224 521.677063,396.705383 
	C521.616882,389.744873 521.650146,382.783539 521.652405,375.822510 
	C521.653381,372.695435 520.992981,369.510010 526.122559,369.564789 
	C531.442871,369.621643 530.273010,373.139984 530.314453,376.056305 
	C530.408447,382.684509 530.362305,389.315063 530.341064,395.944519 
	C530.320007,402.513275 530.302734,402.513214 523.193359,402.024231 
z"/>
<path fill="#000000" opacity="1.000000" stroke="none" 
	d="
M475.169464,402.024200 
	C473.198975,400.387360 473.691742,398.458191 473.676971,396.695282 
	C473.617218,389.566498 473.632996,382.436798 473.663330,375.307617 
	C473.675079,372.550354 473.026825,369.526611 477.632416,369.622406 
	C481.887421,369.710815 481.320770,372.486786 481.330475,375.083923 
	C481.357727,382.378937 481.123688,389.682709 481.416351,396.966003 
	C481.597748,401.479553 479.911499,403.062836 475.169464,402.024200 
z"/>
<path fill="#000000" opacity="1.000000" stroke="none" 
	d="
M486.768799,640.968140 
	C490.635437,643.751892 492.823944,646.829224 490.275299,651.247009 
	C488.011475,655.171021 484.368164,655.481262 480.441589,654.495300 
	C475.267792,653.196106 473.337280,649.432129 474.834229,643.773315 
	C475.953827,639.541016 479.201874,638.139587 484.164368,639.782532 
	C484.942047,640.039978 485.672516,640.440063 486.768799,640.968140 
z"/>
<path fill="#000000" opacity="1.000000" stroke="none" 
	d="
M477.386353,621.959167 
	C479.648468,620.461670 481.826965,620.584351 483.966736,620.714050 
	C486.601807,620.873718 488.573395,621.808411 489.593140,624.652710 
	C490.838074,628.125244 489.151276,630.350403 487.016815,632.505737 
	C485.066376,634.475342 482.802063,634.839478 480.219482,633.630127 
	C474.983826,631.178406 473.892456,627.358215 477.386353,621.959167 
z"/>
<path fill="#000000" opacity="1.000000" stroke="none" 
	d="
M553.663452,654.234192 
	C549.152710,654.721741 546.609558,652.930664 545.468384,648.980530 
	C543.354614,641.663574 543.382446,634.263733 545.097290,626.948303 
	C545.875305,623.629456 547.942078,620.698364 551.960999,620.782410 
	C555.981812,620.866516 557.577393,623.785889 558.374451,627.241272 
	C560.082703,634.646912 559.809204,642.057556 558.105469,649.410339 
	C557.606262,651.565002 556.281372,653.315186 553.663452,654.234192 
z"/>
<path fill="#000000" opacity="1.000000" stroke="none" 
	d="
M518.648560,654.243286 
	C513.998596,654.840454 511.622925,652.710754 510.709015,648.815308 
	C508.982513,641.456299 508.982422,634.032593 510.832123,626.726440 
	C511.676086,623.392822 513.697693,620.614563 517.733276,620.728394 
	C521.584229,620.837036 523.051025,623.673401 523.931702,626.830505 
	C525.927979,633.986084 525.680176,641.208252 524.036987,648.372559 
	C523.424561,651.042480 521.718994,653.103333 518.648560,654.243286 
z"/>
</svg>